<svg xmlns="http://www.w3.org/2000/svg" xmlns:xlink="http://www.w3.org/1999/xlink" x="0px" y="0px" width="96px" height="576px" viewBox="0 0 96 576">
 <!-- icon name home-52--> 
<g transform="translate(16, 16)"><g class="nc-icon-wrapper" fill="#ffffff" transform="translate(0.5, 0.5)"><polyline data-cap="butt" fill="none" stroke="#ffffff" stroke-width="3" stroke-miterlimit="10" points="10,23.966 10,60 26.001,60 26.001,45 38.001,45 38.001,60 54,60 54,23.966 " stroke-linejoin="miter" stroke-linecap="butt"/> <polyline data-cap="butt" data-color="color-2" fill="none" stroke="#ffffff" stroke-width="3" stroke-miterlimit="10" points="12,22.241 12,8 18,8 18,17.069 " stroke-linejoin="miter" stroke-linecap="butt"/> <rect data-color="color-2" x="26.001" y="26" fill="none" stroke="#ffffff" stroke-width="3" stroke-linecap="square" stroke-miterlimit="10" width="12" height="10" stroke-linejoin="miter"/> <polyline fill="none" stroke="#ffffff" stroke-width="3" stroke-linecap="square" stroke-miterlimit="10" points="61,30 32,5 3,30 " stroke-linejoin="miter"/></g></g>

 <!-- icon name spaceship--> 
<g transform="translate(16, 112)"><g class="nc-icon-wrapper" fill="#ffffff" transform="translate(0.5, 0.5)"><line data-cap="butt" fill="none" stroke="#ffffff" stroke-width="3" stroke-miterlimit="10" x1="39.73" y1="8.265" x2="55.67" y2="24.204" stroke-linejoin="miter" stroke-linecap="butt"/> <path data-cap="butt" fill="none" stroke="#ffffff" stroke-width="3" stroke-miterlimit="10" d="M33.48,11.733 c-7.829-3.372-17.259-1.861-23.654,4.534c-1.311,1.311-2.393,2.761-3.294,4.288l9.188,9.188" stroke-linejoin="miter" stroke-linecap="butt"/> <path data-cap="butt" fill="none" stroke="#ffffff" stroke-width="3" stroke-miterlimit="10" d="M52.214,30.4 c3.444,7.854,1.948,17.344-4.482,23.774c-1.311,1.311-2.761,2.393-4.288,3.294l-9.226-9.226" stroke-linejoin="miter" stroke-linecap="butt"/> <path fill="none" stroke="#ffffff" stroke-width="3" stroke-linecap="square" stroke-miterlimit="10" d="M26.884,52.278 L11.722,37.116c0,0,12.951-32.22,49.278-34.116C58.947,39.169,26.884,52.278,26.884,52.278z" stroke-linejoin="miter"/> <ellipse data-color="color-2" transform="matrix(0.7071 -0.7071 0.7071 0.7071 -8.894 33.8063)" fill="none" stroke="#ffffff" stroke-width="3" stroke-linecap="square" stroke-miterlimit="10" cx="36.361" cy="27.639" rx="5.361" ry="5.361" stroke-linejoin="miter"/> <path data-color="color-2" fill="none" stroke="#ffffff" stroke-width="3" stroke-linecap="square" stroke-miterlimit="10" d="M3,55 c0-3.314,2.686-6,6-6s6,2.686,6,6s-2.686,6-6,6c-1.094,0-6,0-6,0S3,57.22,3,55z" stroke-linejoin="miter"/></g></g>

 <!-- icon name award-48--> 
<g transform="translate(16, 208)"><g class="nc-icon-wrapper" fill="#ffffff" transform="translate(0.5, 0.5)"><polyline data-cap="butt" data-color="color-2" fill="none" stroke="#ffffff" stroke-width="3" stroke-miterlimit="10" points="16.672,34.849 8,53 17,52 22,60 30.389,41.936 " stroke-linejoin="miter" stroke-linecap="butt"/> <polyline data-cap="butt" data-color="color-2" fill="none" stroke="#ffffff" stroke-width="3" stroke-miterlimit="10" points="47.328,34.849 56,53 47,52 42,60 33.611,41.936 " stroke-linejoin="miter" stroke-linecap="butt"/> <circle fill="none" stroke="#ffffff" stroke-width="3" stroke-linecap="square" stroke-miterlimit="10" cx="32" cy="22" r="20" stroke-linejoin="miter"/> <polygon fill="none" stroke="#ffffff" stroke-width="3" stroke-linecap="square" stroke-miterlimit="10" points="22,19.655 28.917,18.704 32.055,12.466 35.098,18.751 42,19.807 36.963,24.643 38.091,31.534 31.935,28.238 25.73,31.44 26.963,24.567 " stroke-linejoin="miter"/></g></g>

 <!-- icon name multiple-11--> 
<g transform="translate(16, 304)"><g class="nc-icon-wrapper" fill="#ffffff" transform="translate(0.5, 0.5)"><path data-cap="butt" data-color="color-2" fill="none" stroke="#ffffff" stroke-width="3" stroke-miterlimit="10" d="M21.427,27.439 C20.464,25.41,18.395,24,16,24H8c-3.314,0-6,2.686-6,6v8l4,2l1,14h11" stroke-linejoin="miter" stroke-linecap="butt"/> <circle data-color="color-2" fill="none" stroke="#ffffff" stroke-width="3" stroke-linecap="square" stroke-miterlimit="10" cx="12" cy="12" r="6" stroke-linejoin="miter"/> <path data-cap="butt" data-color="color-2" fill="none" stroke="#ffffff" stroke-width="3" stroke-miterlimit="10" d="M42.573,27.439 C43.536,25.41,45.605,24,48,24h8c3.314,0,6,2.686,6,6v8l-4,2l-1,14H46" stroke-linejoin="miter" stroke-linecap="butt"/> <circle data-color="color-2" fill="none" stroke="#ffffff" stroke-width="3" stroke-linecap="square" stroke-miterlimit="10" cx="52" cy="12" r="6" stroke-linejoin="miter"/> <path fill="none" stroke="#ffffff" stroke-width="3" stroke-linecap="square" stroke-miterlimit="10" d="M38,62H26l-1-16l-5-1V32 c0-4.418,3.582-8,8-8h8c4.418,0,8,3.582,8,8v13l-5,1L38,62z" stroke-linejoin="miter"/> <circle fill="none" stroke="#ffffff" stroke-width="3" stroke-linecap="square" stroke-miterlimit="10" cx="32" cy="10" r="8" stroke-linejoin="miter"/></g></g>

 <!-- icon name email-84--> 
<g transform="translate(16, 400)"><g class="nc-icon-wrapper" fill="#ffffff" transform="translate(0.5, 0.5)"><polyline data-cap="butt" data-color="color-2" fill="none" stroke="#ffffff" stroke-width="3" stroke-miterlimit="10" points="2,10 32,32 62,10 " stroke-linejoin="miter" stroke-linecap="butt"/> <rect x="2" y="10" fill="none" stroke="#ffffff" stroke-width="3" stroke-linecap="square" stroke-miterlimit="10" width="60" height="44" stroke-linejoin="miter"/></g></g>

 <!-- icon name noun_1276359_cc--> 
<g transform="translate(0, 480)"><g class="nc-icon-wrapper" fill="#ffffff"><path d="M80.1 977.5c-.4 0-.8.1-1 .5-13.8 14.5-27.8 27.3-41.8 41.8l-20.3-16c-.6-.5-1.7-.4-2.2.3-.5.6-.4 1.7.3 2.2l21.3 16.8c.6.5 1.5.5 2-.1 14.2-14.7 28.4-27.9 42.7-42.7.6-.6.6-1.7 0-2.2-.2-.4-.6-.7-1-.6z" transform="translate(0 -952.362)"/></g></g>
</svg>